HIERARCHY
ROOT Hips
{
  OFFSET 32.166 99.5335 -33.6873
  CHANNELS 6 Xposition Yposition Zposition Zrotation Xrotation Yrotation
  JOINT RightUpLeg
  {
    OFFSET -8.9458 -8.66707 0.101652
    CHANNELS 3 Zrotation Xrotation Yrotation
    JOINT RightLeg
    {
      OFFSET 0 -44.4227 1.3727
      CHANNELS 3 Zrotation Xrotation Yrotation
      JOINT RightFoot
      {
        OFFSET 0.253549 -42.0924 -1.46059
        CHANNELS 3 Zrotation Xrotation Yrotation
        JOINT RightToes
        {
          OFFSET 0.04 -4.41509 8.4991
          CHANNELS 3 Zrotation Xrotation Yrotation
          End Site
          {
            OFFSET -0.08 -0.137448 9.77979
          }
        }
      }
    }
  }
  JOINT Spine
  {
    OFFSET 0 11.8905 0
    CHANNELS 3 Zrotation Xrotation Yrotation
    JOINT Spine1
    {
      OFFSET 0 25.6574 0.127663
      CHANNELS 3 Zrotation Xrotation Yrotation
      JOINT HEad
      {
        OFFSET 0 8.73416 0.011341
        CHANNELS 3 Zrotation Xrotation Yrotation
        End Site
        {
          OFFSET -0.29 12.7742 2.51395
        }
      }
      JOINT LeftShoulder1
      {
        OFFSET 8.99 -0.362252 -0.22
        CHANNELS 3 Zrotation Xrotation Yrotation
        JOINT LeftArm
        {
          OFFSET 10.2827 -0.00338 0.322123
          CHANNELS 3 Zrotation Xrotation Yrotation
          JOINT LeftForeArm
          {
            OFFSET 32.7669 0.099144 -1.42434
            CHANNELS 3 Zrotation Xrotation Yrotation
            JOINT LeftHand
            {
              OFFSET 27.5643 0.085362 1.02216
              CHANNELS 3 Zrotation Xrotation Yrotation
              End Site
              {
                OFFSET 16.7443 -0.6 1.50291
              }
            }
          }
        }
      }
      JOINT RightShoulder
      {
        OFFSET -8.99 -0.362252 -0.22
        CHANNELS 3 Zrotation Xrotation Yrotation
        JOINT RightArm
        {
          OFFSET -10.2827 -0.00338 0.322123
          CHANNELS 3 Zrotation Xrotation Yrotation
          JOINT RightForeArm
          {
            OFFSET -32.8971 0.099144 -1.42434
            CHANNELS 3 Zrotation Xrotation Yrotation
            JOINT RightHand
            {
              OFFSET -27.4921 0.085362 1.02216
              CHANNELS 3 Zrotation Xrotation Yrotation
              End Site
              {
                OFFSET -16.6312 -0.6 1.50291
              }
            }
          }
        }
      }
    }
  }
  JOINT LeftUpLeg
  {
    OFFSET 8.9458 -8.66707 0.101652
    CHANNELS 3 Zrotation Xrotation Yrotation
    JOINT LeftLeg
    {
      OFFSET 0 -44.4227 1.3727
      CHANNELS 3 Zrotation Xrotation Yrotation
      JOINT LeftFoot
      {
        OFFSET -0.253549 -42.0924 -1.46059
        CHANNELS 3 Zrotation Xrotation Yrotation
        JOINT LeftToes
        {
          OFFSET -0.04 -4.41509 8.4991
          CHANNELS 3 Zrotation Xrotation Yrotation
          End Site
          {
            OFFSET 0.08 -0.047448 9.77979
          }
        }
      }
    }
  }
}
MOTION
Frames:	7
Frame Time:	0.0166667
31.9799 100.283 -47.5297 0.886953 0.537598 -172.775 2.34412 -19.4559 1.37762 4.99435 19.0385 -33.7458 10.5651 -6.63711 0.114595 -2.96324 21.1021 4.86785 -1.89956 3.35722 0.322608 3.89331 -10.6868 -0.182082 0.517911 7.03347 -0.615659 -4.41391e-032 3.18055e-015 7.95139e-016 -93.1222 -13.5089 -25.5413 -21.157 16.4719 -23.8228 0.368473 9.90896 -0.00117927 2.2279 -0.100099 -4.46511 67.8902 -26.7848 -19.4893 27.3223 11.455 1.49664 -0.369625 9.91382 0.00119887 1.15714 -3.37535 -3.72429 -17.9979 53.4989 37.9228 2.65901 3.43673 -0.0537504 -0.586481 7.63995 0.719663 
32.0212 100.483 -49.5759 1.15839 0.63704 -173.026 2.91395 -18.1231 2.01734 5.29328 19.1228 -33.6982 10.6277 -7.66469 0.208061 -2.98556 18.4566 4.65442 -1.53682 3.42501 0.352939 4.16187 -10.4424 -0.186271 0.541204 7.19224 -0.507829 8.94531e-016 0 -0 -93.1834 -13.9832 -24.8944 -21.3634 16.4255 -23.4958 0.368473 9.90896 -0.00117927 2.14011 -0.074932 -4.22735 69.2147 -25.5415 -17.2545 27.5808 11.7529 2.85182 -0.369625 9.91382 0.00119887 1.94579 -6.3217 -3.96974 -20.9269 57.1865 39.2508 3.13192 3.33736 -0.0849686 -0.605154 10.2422 -0.235826 
32.0837 100.734 -51.5674 1.36088 0.721137 -173.182 3.3559 -16.5465 3.09673 5.64026 18.6312 -34.1822 10.8071 -8.46866 0.285974 -3.26632 16.0176 4.70235 -1.13802 3.53016 0.339107 4.17034 -10.213 -0.196942 0.722684 7.36445 -0.439454 1.98785e-016 7.95139e-016 -7.95139e-016 -93.2351 -14.6538 -24.275 -21.5449 16.3455 -22.9833 0.368473 9.90896 -0.00117927 2.18569 -0.0451503 -3.93884 70.5078 -24.1585 -14.9348 27.8571 12.0811 4.35956 -0.369625 9.91382 0.00119887 2.52371 -9.28603 -4.59864 -23.598 59.9987 39.9437 3.69033 1.98699 -0.082145 -0.247751 10.693 -1.6372 
32.178 101.029 -53.5371 1.39643 0.859617 -173.341 3.7356 -14.7314 3.65706 5.57801 17.8758 -34.2619 11.0936 -9.14042 0.361271 -3.0335 15.0219 4.42923 -0.771886 3.64271 0.274167 3.80104 -9.8205 -0.216008 1.21617 7.27326 -0.35916 -2.98177e-016 0 -0 -93.3472 -15.6433 -23.7113 -21.5731 16.2274 -22.3308 0.368473 9.90896 -0.00117927 2.43485 -0.00717901 -3.57725 71.8618 -22.7721 -12.2059 27.9582 12.3292 5.43408 -0.369625 9.91382 0.00119887 2.91195 -12.1366 -5.61685 -26.0331 61.5757 40.592 3.48357 0.572075 -0.040347 -0.382188 10.5652 -0.918196 
32.2679 101.313 -55.4935 1.39381 1.04889 -173.481 4.13693 -12.7689 4.25457 5.3689 16.9432 -34.4087 11.4619 -9.78528 0.439762 -2.52456 14.6849 3.97962 -0.362825 3.73367 0.180761 3.30637 -9.34407 -0.236349 1.76387 7.13994 -0.255292 9.93923e-017 -2.38542e-015 7.95139e-016 -93.4837 -16.8414 -23.0996 -21.5009 16.0828 -21.599 0.368473 9.90896 -0.00117927 2.69779 0.0410696 -3.12415 73.1822 -21.4129 -9.34427 27.9264 12.5767 6.44503 -0.369625 9.91382 0.00119887 3.14513 -14.8318 -6.67412 -27.5967 62.273 40.9799 3.12896 -1.03395 0.0149519 -0.717343 9.30224 0.836917 
32.3183 101.516 -57.4508 1.48791 1.33011 -173.602 4.68521 -10.7551 5.2508 5.14183 16.0497 -34.9017 11.9006 -10.6299 0.541052 -1.64529 14.7951 3.2617 0.186765 3.74921 0.0747382 2.93144 -8.74979 -0.251165 2.11772 7.0903 -0.0917925 1.98785e-016 0 -0 -93.6347 -18.155 -22.328 -21.3143 15.9175 -20.8539 0.368473 9.90896 -0.00117927 2.80316 0.106089 -2.53637 74.4798 -20.2258 -6.47209 27.6828 12.8731 7.6061 -0.369625 9.91382 0.00119887 3.39718 -17.312 -7.27917 -27.5794 62.4009 41.3205 2.99608 -2.59612 0.0573694 -1.12691 6.67218 3.6762 
32.3367 101.676 -59.425 1.56308 1.63882 -173.729 5.20196 -8.67693 6.2436 4.80964 15.128 -35.3475 12.3647 -11.4015 0.637807 -0.602731 14.8676 2.41852 0.740409 3.73393 -0.0303673 2.57951 -8.19932 -0.261585 2.39906 7.13364 0.109933 -4.96962e-016 -1.59028e-015 7.95139e-016 -93.7686 -19.655 -21.4336 -21.0918 15.7502 -20.1232 0.368473 9.90896 -0.00117927 2.7644 0.178259 -1.86577 75.7039 -19.0878 -3.65943 27.3682 13.181 8.80601 -0.369625 9.91382 0.00119887 3.61513 -19.5519 -7.77994 -26.6609 61.7351 41.5183 2.96573 -4.01252 0.0950909 -1.28765 3.27708 6.69408 
